<svg width="26" height="27" viewBox="0 0 26 27" fill="none" xmlns="http://www.w3.org/2000/svg">
<path d="M21.4375 11.6007L9.58255 23.9074L7.85922 22.1176L8.03714 21.9328H5.69361C5.24625 21.9328 4.88023 21.5527 4.88023 21.0881V18.6542L4.70282 18.839C4.46236 19.0924 4.28596 19.3987 4.18988 19.7365L3.02167 23.8652L6.99501 22.6509C7.2746 22.5506 7.6152 22.3658 7.85922 22.1176L9.58255 23.9074C9.05386 24.4565 8.39808 24.863 7.68129 25.0795L1.56421 26.9484C1.13617 27.0804 0.673056 26.959 0.357365 26.5842C0.0416638 26.3043 -0.076367 25.8239 0.0496043 25.3751L1.84889 19.0238C2.06037 18.2794 2.44824 17.5983 2.97745 17.0492L14.8288 4.73939L21.4375 11.6007ZM25.0468 3.07158C26.3177 4.39094 26.3177 6.53234 25.0468 7.85223L22.5864 10.4075L15.9777 3.54515L18.4382 0.989841C19.7091 -0.329947 21.773 -0.329947 23.0439 0.989841L25.0468 3.07158Z" fill="black"/>
</svg>
