<svg width="27" height="28" viewBox="0 0 27 28" fill="none" xmlns="http://www.w3.org/2000/svg">
<path d="M0 5.25C0 4.28367 0.863638 3.5 1.92857 3.5H25.0714C26.1382 3.5 27 4.28367 27 5.25C27 6.21797 26.1382 7 25.0714 7H1.92857C0.863638 7 0 6.21797 0 5.25ZM0 14C0 13.032 0.863638 12.25 1.92857 12.25H25.0714C26.1382 12.25 27 13.032 27 14C27 14.968 26.1382 15.75 25.0714 15.75H1.92857C0.863638 15.75 0 14.968 0 14ZM25.0714 24.5H1.92857C0.863638 24.5 0 23.718 0 22.75C0 21.782 0.863638 21 1.92857 21H25.0714C26.1382 21 27 21.782 27 22.75C27 23.718 26.1382 24.5 25.0714 24.5Z" fill="#1267FC"/>
</svg>
