<svg width="54" height="48" viewBox="0 0 54 48" fill="none" xmlns="http://www.w3.org/2000/svg">
<path d="M54 24C54 37.2562 41.9133 48 27 48C12.0867 48 0 37.2562 0 24C0 10.7438 12.0867 0 27 0C41.9133 0 54 10.7438 54 24Z" fill="black" fill-opacity="0.5"/>
<path d="M40.4427 21.2566C41.4109 21.8459 42 22.8841 42 24.0026C42 25.121 41.4109 26.1592 40.4427 26.6883L20.9447 38.4759C19.9413 39.139 18.6853 39.1658 17.6602 38.5965C16.6349 38.0272 16 36.9556 16 35.7902V12.2149C16 11.0522 16.6349 9.97992 17.6602 9.41063C18.6853 8.842 19.9413 8.86545 20.9447 9.47157L40.4427 21.2566Z" fill="black"/>
</svg>
