<svg width="28" height="29" viewBox="0 0 28 29" fill="none" xmlns="http://www.w3.org/2000/svg">
<path d="M27.3602 24.2648L20.8141 17.7187C22.3027 15.5088 23.0371 12.7476 22.6439 9.80545C21.9735 4.801 17.8719 0.728419 12.8625 0.0942077C5.41457 -0.848222 -0.848269 5.41459 0.0942184 12.8625C0.728596 17.874 4.80174 21.9789 9.80675 22.6461C12.749 23.0392 15.5107 22.305 17.7201 20.8162L24.2662 27.3623C25.1204 28.2165 26.5056 28.2165 27.3599 27.3623C28.2133 26.507 28.2133 25.118 27.3602 24.2648ZM4.32573 11.375C4.32573 7.51514 7.4659 4.37498 11.3258 4.37498C15.1856 4.37498 18.3258 7.51514 18.3258 11.375C18.3258 15.2348 15.1856 18.375 11.3258 18.375C7.4659 18.375 4.32573 15.2359 4.32573 11.375Z" fill="#1267FC"/>
</svg>
