<svg width="26" height="27" viewBox="0 0 26 27" fill="none" xmlns="http://www.w3.org/2000/svg">
<g clip-path="url(#clip0_1_18)">
<path d="M7.84643 0.932871C8.15982 0.361125 8.80402 0 9.50625 0H16.4937C17.196 0 17.8402 0.361125 18.1536 0.932871L18.5714 1.6875H24.1429C25.1701 1.6875 26 2.44318 26 3.375C26 4.30682 25.1701 5.0625 24.1429 5.0625H1.85714C0.831652 5.0625 0 4.30682 0 3.375C0 2.44318 0.831652 1.6875 1.85714 1.6875H7.42857L7.84643 0.932871ZM22.9125 24.5795C22.8196 25.9611 21.6067 27 20.1326 27H5.86741C4.3962 27 3.17862 25.9611 3.08692 24.5795L1.80491 6.75H24.1429L22.9125 24.5795Z" fill="black"/>
</g>
<defs>
<clipPath id="clip0_1_18">
<rect width="26" height="27" fill="white"/>
</clipPath>
</defs>
</svg>
